<?xml version="1.0" standalone="no"?>
<!DOCTYPE svg PUBLIC "-//W3C//DTD SVG 20010904//EN"
 "http://www.w3.org/TR/2001/REC-SVG-20010904/DTD/svg10.dtd">
<svg version="1.0" xmlns="http://www.w3.org/2000/svg"
 width="1200.000000pt" height="1200.000000pt" viewBox="0 0 1200.000000 1200.000000"
 preserveAspectRatio="xMidYMid meet">
<metadata>
Created by potrace 1.14, written by Peter Selinger 2001-2017
</metadata>
<g transform="translate(0.000000,1200.000000) scale(0.100000,-0.100000)"
fill="#000000" stroke="none">
<path d="M11947 10679 c-26 -4 -62 -17 -80 -28 -17 -11 -63 -37 -101 -56 -76
-40 -120 -80 -156 -140 -21 -35 -24 -54 -26 -150 -2 -106 8 -176 36 -236 19
-41 60 -59 135 -59 61 0 71 3 118 36 69 48 127 121 127 157 0 28 -1 28 -39
-20 -82 -102 -128 -133 -202 -133 -82 0 -125 43 -135 135 -9 82 -4 194 10 228
22 50 79 112 119 127 17 8 54 29 81 48 48 33 87 50 134 56 28 4 35 10 30 28
-2 10 -14 12 -51 7z"/>
<path d="M11925 10023 c-11 -2 -30 -6 -41 -8 -29 -6 -48 -54 -35 -86 12 -30
88 -112 119 -128 19 -10 23 -9 29 5 4 10 2 19 -5 22 -23 7 -112 111 -112 130
0 6 27 16 60 23 48 9 60 15 60 30 0 19 -25 23 -75 12z"/>
<path d="M6095 9853 c-123 -14 -190 -26 -222 -39 -30 -13 -34 -17 -22 -29 12
-12 26 -11 94 5 44 10 124 21 179 25 54 3 101 7 105 7 12 3 176 -13 241 -24
72 -12 192 -41 230 -56 14 -5 57 -20 95 -33 83 -27 154 -58 333 -146 333 -163
677 -451 877 -733 21 -30 40 -57 42 -59 1 -2 12 0 24 5 19 9 17 14 -44 95 -65
85 -180 217 -241 274 -128 120 -297 255 -401 320 -27 17 -60 38 -74 47 -46 31
-314 163 -406 200 -104 42 -257 92 -330 108 -142 32 -365 47 -480 33z"/>
<path d="M5265 9805 c-147 -27 -188 -37 -287 -74 -84 -31 -290 -130 -366 -176
-41 -25 -275 -185 -342 -234 -156 -116 -403 -330 -480 -418 -84 -95 -202 -250
-229 -299 -12 -21 -30 -52 -41 -69 -26 -39 -98 -189 -117 -240 -51 -143 -102
-382 -107 -500 -1 -22 -5 -45 -9 -52 -10 -16 -21 -118 -19 -185 1 -51 -2 -58
-19 -58 -11 0 -22 -8 -25 -17 -3 -10 -10 -27 -14 -38 -19 -44 -41 -187 -39
-261 1 -43 8 -119 16 -169 8 -49 15 -125 15 -167 0 -59 4 -78 14 -78 18 0 18
-16 0 -23 -11 -4 -14 -25 -14 -84 0 -43 3 -82 7 -88 3 -5 7 -23 8 -40 3 -53
15 -130 23 -140 4 -5 11 -28 15 -50 17 -95 104 -315 125 -315 21 0 21 28 2 67
-29 57 -88 236 -107 328 -19 89 -22 117 -30 225 -6 84 -8 87 61 -75 25 -60 59
-128 75 -149 16 -22 29 -46 29 -52 0 -7 6 -17 13 -21 7 -4 20 -20 30 -35 10
-16 26 -28 37 -28 21 0 27 24 9 36 -17 10 -112 162 -143 229 -50 107 -114 305
-122 375 -2 25 -9 77 -15 115 -16 100 -6 277 17 344 23 63 44 78 44 31 0 -46
30 -232 41 -252 5 -10 9 -26 9 -36 0 -23 70 -221 106 -299 27 -58 45 -75 58
-55 3 5 -13 50 -34 100 -46 105 -107 304 -121 395 -27 162 -40 302 -33 340 6
30 32 37 40 10 36 -112 174 -397 243 -503 58 -87 118 -153 131 -145 17 11 11
23 -40 87 -78 96 -172 268 -245 448 -97 238 -99 248 -86 370 27 264 106 484
259 720 134 205 341 424 575 603 27 21 55 43 61 48 38 31 79 61 136 100 36 25
88 61 115 80 81 57 324 193 405 227 301 124 612 156 788 81 24 -11 48 -17 53
-13 18 11 8 34 -18 40 -16 4 -37 13 -48 20 -48 31 -283 42 -410 19z"/>
<path d="M9615 9507 c-83 -13 -198 -54 -248 -90 -104 -74 -191 -220 -237 -397
-40 -151 -33 -249 25 -376 35 -76 44 -87 63 -75 10 6 5 22 -16 67 -40 80 -51
117 -57 194 -13 160 110 454 227 544 19 14 59 36 89 49 245 108 562 40 688
-147 28 -42 121 -307 121 -345 0 -12 6 -34 13 -49 18 -35 15 -184 -5 -238 -8
-22 -32 -66 -53 -98 -44 -67 -179 -206 -200 -206 -7 0 -15 -4 -17 -8 -5 -14
-128 -60 -217 -83 -77 -19 -116 -21 -181 -7 -54 12 -162 73 -214 122 -33 30
-56 34 -56 9 0 -23 111 -105 195 -144 79 -38 152 -45 238 -23 34 8 79 20 99
25 105 26 259 123 320 203 18 22 35 43 38 46 26 24 82 139 95 195 20 88 9 212
-32 340 -69 216 -119 317 -176 357 -18 12 -41 31 -52 41 -19 18 -87 51 -150
74 -69 26 -206 35 -300 20z"/>
<path d="M8084 8746 c-6 -16 68 -167 92 -187 25 -20 50 -77 82 -184 29 -98 57
-180 73 -220 20 -47 53 -174 96 -365 3 -14 5 -43 5 -65 1 -49 6 -59 24 -44 25
20 11 167 -26 284 -6 17 -19 64 -31 105 -19 69 -59 188 -79 235 -111 257 -154
353 -168 374 -10 14 -24 38 -32 54 -15 30 -28 35 -36 13z"/>
<path d="M4645 8707 c-15 -23 -16 -33 -16 -109 0 -57 2 -78 12 -134 11 -59 6
-87 -53 -279 -67 -218 -145 -445 -183 -535 -20 -47 -48 -112 -62 -145 -56
-134 -167 -360 -188 -385 -7 -8 -25 -55 -40 -105 -14 -49 -34 -110 -42 -135
-50 -144 22 -867 104 -1050 69 -153 219 -443 261 -505 48 -71 82 -95 82 -56 0
11 -6 24 -14 28 -45 27 -326 596 -326 662 0 11 -4 31 -9 44 -9 22 -14 51 -27
132 -1 11 -5 43 -9 70 -3 28 -13 91 -22 140 -21 120 -21 447 0 520 8 28 22 76
31 108 9 32 57 140 107 240 50 100 111 229 134 287 24 58 55 130 68 160 13 30
36 91 51 135 15 44 32 89 36 100 8 17 62 195 77 250 3 11 19 55 36 98 30 76
31 78 44 54 7 -14 20 -47 28 -73 38 -114 157 -352 206 -409 9 -11 18 -25 20
-31 16 -45 199 -266 255 -309 22 -16 77 -64 124 -106 192 -174 375 -287 583
-359 54 -19 70 -21 80 -11 9 10 9 15 -4 24 -9 7 -19 25 -23 40 -4 16 -24 47
-44 70 -141 156 -288 388 -377 591 -51 118 -57 146 -20 92 14 -20 36 -52 49
-71 87 -126 276 -308 376 -361 19 -11 49 -28 65 -40 37 -25 138 -74 153 -74 7
0 12 6 12 14 0 7 -54 44 -120 81 -247 140 -436 336 -558 580 -28 55 -54 114
-57 130 -4 17 -13 35 -21 41 -7 6 -17 39 -21 75 -6 51 -12 64 -27 67 -18 4
-19 -1 -13 -74 7 -73 17 -115 58 -244 33 -105 109 -294 136 -339 15 -25 38
-66 51 -91 53 -99 187 -293 279 -404 49 -59 44 -64 -32 -31 -16 7 -48 21 -70
30 -151 62 -351 211 -534 398 -36 37 -71 67 -78 67 -13 0 -96 100 -165 200
-99 143 -210 355 -244 463 -25 80 -55 161 -63 172 -28 35 -46 264 -23 287 11
11 5 38 -9 38 -5 0 -15 -10 -24 -23z"/>
<path d="M7436 8692 c-4 -8 21 -43 87 -117 20 -23 37 -47 37 -52 0 -5 10 -18
21 -29 12 -10 25 -28 30 -39 5 -11 23 -40 39 -65 27 -42 82 -139 139 -249 56
-107 170 -376 199 -471 48 -154 93 -318 98 -360 2 -14 10 -59 18 -100 7 -41
12 -88 10 -105 -5 -43 5 -85 22 -85 14 0 15 4 18 75 1 41 -15 164 -33 245 -27
127 -98 368 -112 385 -5 5 -9 17 -9 26 0 9 -10 38 -22 65 -12 27 -23 54 -24
59 -7 30 -93 215 -155 333 -79 150 -103 189 -209 346 -25 36 -94 120 -110 133
-17 14 -37 16 -44 5z"/>
<path d="M9260 8495 c0 -28 25 -44 42 -27 9 9 7 17 -7 32 -24 27 -35 25 -35
-5z"/>
<path d="M6550 8254 c0 -9 39 -74 86 -146 154 -233 362 -621 379 -708 4 -19
11 -39 15 -45 26 -36 58 -189 41 -199 -6 -4 -48 0 -93 9 -46 9 -121 18 -168
20 -104 6 -243 22 -290 35 -19 5 -69 18 -110 29 -95 27 -133 27 -128 4 2 -13
24 -23 78 -36 41 -10 89 -22 106 -27 17 -6 44 -10 62 -10 17 0 42 -4 57 -10
14 -5 58 -12 98 -14 165 -11 300 -28 364 -47 37 -12 77 -21 88 -22 27 -3 32
16 9 28 -42 22 -44 25 -33 48 11 25 -17 141 -65 272 -32 86 -159 339 -231 460
-62 103 -72 138 -20 71 19 -26 35 -48 35 -51 0 -3 22 -35 48 -72 55 -78 70
-103 145 -233 65 -115 157 -295 157 -309 0 -6 11 -34 24 -63 30 -68 46 -126
46 -171 0 -27 4 -35 14 -31 11 4 109 -12 181 -30 6 -2 24 -6 40 -10 136 -32
303 -86 424 -136 66 -27 98 -27 89 0 -9 27 -348 143 -538 184 -14 3 -47 11
-75 17 -27 6 -60 13 -72 15 -15 3 -25 14 -29 32 -40 179 -176 461 -340 706
-187 279 -254 365 -285 370 -22 3 -49 25 -49 41 0 15 -32 45 -48 45 -7 0 -12
-7 -12 -16z"/>
<path d="M8465 7596 c-19 -28 -13 -80 8 -73 14 4 28 79 17 91 -4 4 -16 -4 -25
-18z"/>
<path d="M8516 7590 c-3 -8 -7 -60 -10 -115 -8 -156 -69 -364 -149 -508 -42
-77 -106 -153 -139 -167 -38 -17 -64 -48 -51 -61 16 -16 81 24 139 87 43 47
136 211 164 289 15 43 50 162 60 210 18 80 21 240 5 262 -11 15 -14 16 -19 3z"/>
<path d="M8358 7385 c-68 -91 -95 -146 -70 -145 8 1 129 150 155 192 9 16 17
35 17 43 0 34 -30 9 -102 -90z"/>
<path d="M4775 7456 c-68 -13 -141 -50 -200 -101 -31 -26 -37 -36 -28 -46 10
-10 21 -5 55 23 40 32 102 61 191 88 21 7 72 10 115 9 64 -3 77 -1 80 12 5 29
-106 37 -213 15z"/>
<path d="M8519 7208 c-1 -7 -2 -29 -3 -48 -4 -64 -60 -384 -75 -430 -5 -14
-17 -52 -26 -85 -40 -136 -51 -163 -137 -342 -26 -57 -55 -103 -62 -103 -24 0
-59 106 -62 186 -3 105 -39 192 -103 251 -35 33 -131 57 -131 33 0 -5 -9 -10
-21 -10 l-20 0 20 -26 c12 -15 21 -31 21 -36 0 -10 159 -249 172 -258 4 -3 13
-32 20 -65 11 -47 18 -60 32 -60 14 0 27 -23 56 -96 20 -53 40 -109 43 -125
40 -207 45 -248 42 -355 -2 -90 -9 -132 -30 -197 -14 -46 -24 -86 -21 -89 11
-12 36 8 49 39 61 147 50 458 -24 676 l-28 84 21 21 c17 19 47 78 129 253 10
23 19 48 19 56 0 8 4 18 10 24 5 5 14 34 20 64 6 30 19 73 30 95 11 23 20 48
20 56 1 30 18 -16 23 -61 6 -47 8 -57 38 -157 18 -62 27 -80 78 -157 27 -40
76 -93 119 -127 25 -19 27 -19 33 -2 5 13 -8 32 -46 70 -108 107 -154 203
-180 378 -14 92 -16 97 -35 92 -18 -4 -19 0 -15 39 2 24 7 49 10 54 8 12 36
164 37 195 0 11 5 43 10 71 12 59 5 104 -17 104 -8 0 -16 -6 -16 -12z m-496
-597 c29 -26 41 -45 77 -121 14 -29 23 -103 12 -99 -12 5 -162 225 -162 239 0
20 40 9 73 -19z"/>
<path d="M8125 6939 c-5 -13 -1 -27 8 -36 13 -14 16 -13 27 7 6 12 9 28 6 36
-8 21 -34 17 -41 -7z"/>
<path d="M7524 6939 c-3 -6 -1 -16 5 -22 6 -6 11 -19 11 -28 0 -20 50 -179 72
-229 47 -106 58 -142 47 -161 -5 -11 -11 -87 -12 -169 -2 -122 1 -156 14 -182
9 -17 19 -26 23 -20 3 5 4 68 1 139 -2 71 -1 142 4 159 l8 29 23 -47 c21 -46
50 -64 50 -33 0 9 -14 46 -31 83 -45 99 -113 277 -139 362 -13 41 -27 87 -33
103 -10 28 -30 36 -43 16z"/>
<path d="M3556 6655 c-8 -21 35 -67 53 -56 11 7 10 14 -5 40 -20 33 -38 40
-48 16z"/>
<path d="M6528 6581 c-56 -6 -77 -15 -65 -28 4 -4 52 -5 107 -4 55 1 115 -2
132 -8 18 -5 69 -17 113 -26 44 -10 98 -26 120 -35 23 -10 70 -30 105 -43 112
-42 273 -134 339 -193 55 -50 61 -52 61 -25 0 38 -90 102 -273 196 -154 80
-342 143 -472 160 -93 11 -110 12 -167 6z"/>
<path d="M4900 6560 c-133 -33 -341 -126 -364 -163 -22 -35 20 -28 84 13 34
22 169 79 225 95 33 9 75 21 92 26 18 6 78 12 133 14 100 4 120 8 120 26 0 17
-210 9 -290 -11z"/>
<path d="M5209 6506 c-2 -2 -35 -7 -73 -10 -121 -9 -329 -67 -398 -112 -21
-13 -40 -24 -43 -24 -2 0 -35 -18 -71 -41 -52 -31 -69 -38 -75 -27 -7 10 -11
10 -21 -3 -7 -8 -35 -32 -63 -54 -79 -61 -95 -91 -53 -97 17 -2 21 -10 23 -38
0 -19 -4 -43 -9 -52 -7 -12 -7 -21 1 -29 9 -9 26 4 71 52 54 57 159 127 246
162 18 7 19 6 4 -10 -14 -17 -23 -48 -49 -178 -20 -98 -12 -396 11 -410 18
-11 27 32 20 95 -9 83 -4 249 8 320 16 89 40 137 95 186 69 61 97 74 178 81
l69 6 35 -37 c67 -72 85 -115 100 -243 8 -65 15 -194 15 -287 0 -141 -3 -180
-20 -237 -11 -37 -28 -75 -36 -84 -22 -21 -12 -28 18 -14 14 6 36 32 49 58 23
44 24 54 24 261 0 364 -16 450 -101 555 -51 62 -54 59 64 69 47 4 69 2 87 -10
14 -9 26 -11 29 -5 10 16 -5 41 -30 47 -19 5 -22 11 -17 35 4 21 1 30 -11 35
-15 6 -15 8 1 20 16 12 15 13 -14 14 -17 0 -38 2 -45 5 -8 3 -16 4 -19 1z
m-333 -125 c-8 -12 -46 -21 -46 -11 0 5 8 11 18 13 29 8 33 7 28 -2z"/>
<path d="M6495 6492 c-11 -5 -20 -15 -20 -23 0 -8 -11 -16 -25 -17 -34 -5 -49
-20 -30 -33 13 -8 13 -11 -2 -23 -10 -7 -18 -16 -18 -20 0 -3 41 -6 91 -6 49
0 110 -5 135 -11 38 -10 44 -15 44 -38 0 -15 -4 -31 -9 -36 -11 -12 -46 -150
-55 -216 -22 -156 6 -363 66 -482 36 -72 118 -146 118 -106 0 7 -16 31 -34 54
-36 43 -86 145 -86 174 0 9 -7 36 -16 61 -22 62 -25 188 -8 295 14 84 66 231
89 247 20 15 74 8 127 -17 29 -14 62 -25 73 -25 11 0 42 -15 69 -33 27 -17 61
-39 75 -48 58 -35 87 -251 62 -457 -20 -165 -69 -269 -137 -298 -56 -23 -38
-54 20 -34 69 22 121 113 147 260 17 90 18 395 2 425 -6 11 -13 37 -17 58 -6
30 -4 37 9 37 8 0 15 -4 15 -8 0 -5 19 -19 43 -32 45 -26 120 -80 125 -92 2
-5 9 -8 17 -8 7 0 18 -7 25 -15 20 -24 24 -10 5 19 -9 14 -14 30 -11 35 13 21
-7 89 -38 126 -62 74 -230 162 -461 240 -128 43 -150 47 -255 51 -63 2 -124 0
-135 -4z"/>
<path d="M3627 6450 c-75 -46 -111 -141 -112 -295 0 -107 7 -147 46 -265 44
-137 181 -352 245 -386 37 -20 42 -29 19 -38 -8 -3 -15 -12 -15 -20 0 -14 27
-82 53 -131 6 -11 24 -47 41 -80 16 -33 40 -74 53 -91 13 -17 23 -34 23 -38 0
-4 5 -12 10 -19 6 -7 39 -50 74 -97 90 -121 207 -233 221 -210 9 15 -9 42 -59
88 -47 44 -135 146 -174 203 -72 108 -94 143 -127 210 -40 81 -78 180 -71 187
3 2 21 -6 41 -18 28 -17 54 -23 113 -25 l77 -2 33 -54 c113 -186 320 -420 459
-519 35 -25 63 -51 63 -59 0 -30 78 -139 158 -221 29 -29 52 -56 52 -60 0 -3
-17 -14 -37 -23 -21 -9 -76 -52 -122 -94 -68 -64 -83 -83 -80 -103 4 -25 4
-25 44 15 53 52 116 106 145 125 12 8 35 24 49 35 70 54 95 51 189 -17 82 -60
143 -126 248 -268 31 -41 69 -87 86 -102 49 -45 148 -171 148 -190 0 -9 5 -20
10 -23 6 -3 10 -34 10 -69 0 -67 -20 -121 -52 -144 -20 -15 -24 -38 -7 -44 8
-3 8 -19 0 -60 -14 -68 -12 -140 6 -192 16 -48 4 -77 -67 -162 -27 -32 -57
-72 -66 -89 -9 -16 -25 -36 -35 -43 -9 -6 -20 -26 -24 -43 -8 -36 -59 -134
-103 -199 -47 -69 -206 -220 -309 -294 -51 -36 -97 -66 -102 -66 -19 0 -102
-140 -142 -239 -43 -107 -46 -149 -9 -116 11 10 20 24 20 31 0 19 69 175 97
220 15 23 60 65 101 95 104 75 270 218 312 269 19 24 42 50 51 59 9 9 38 53
64 98 l47 81 43 -29 c52 -35 114 -39 162 -9 18 11 62 50 98 87 57 58 68 66 83
55 9 -7 27 -16 39 -22 27 -11 39 -76 29 -164 -4 -33 -10 -88 -12 -121 -2 -33
-9 -85 -15 -115 -11 -55 -14 -245 -6 -325 3 -25 10 -41 19 -43 12 -2 15 22 14
160 0 92 5 185 12 213 12 50 20 142 27 290 3 71 6 80 22 76 10 -2 37 -5 61 -6
53 -4 58 -8 44 -40 -18 -39 -14 -69 11 -93 73 -68 176 29 121 114 -9 13 -15
26 -13 27 26 19 97 75 108 85 16 16 38 10 32 -9 -2 -8 -5 -50 -7 -94 -1 -44
-6 -127 -10 -185 -11 -128 -10 -267 0 -277 15 -15 32 27 30 74 -1 26 2 107 7
178 5 72 11 181 14 244 6 139 15 155 61 109 18 -18 34 -39 34 -46 0 -7 7 -15
15 -18 8 -4 15 -10 15 -16 0 -16 74 -90 119 -119 62 -40 122 -39 210 3 75 36
195 111 206 128 16 25 -19 28 -54 5 -20 -14 -74 -45 -121 -70 -97 -53 -160
-66 -206 -42 -35 18 -144 132 -144 151 0 7 -18 30 -40 50 -27 24 -39 43 -36
54 12 36 8 189 -5 232 -7 26 -36 71 -65 107 -42 50 -54 71 -59 110 -13 105
-36 188 -54 203 -11 8 -21 28 -23 45 -3 26 1 30 32 38 19 5 47 10 62 12 15 1
55 20 90 41 76 47 78 48 170 101 280 163 418 278 418 347 0 17 -6 38 -13 47
-11 15 -49 39 -61 39 -13 0 -4 -28 14 -45 11 -10 20 -28 20 -40 0 -28 -49 -80
-63 -66 -14 14 -26 93 -26 174 l-1 67 33 2 c41 2 47 1 135 -12 139 -19 163
-48 181 -208 7 -59 14 -121 17 -139 5 -31 40 -69 357 -381 79 -78 95 -146 60
-245 -14 -39 -39 -68 -126 -150 -59 -56 -130 -115 -156 -132 -187 -115 -351
-238 -337 -252 2 -3 25 7 50 21 25 14 67 38 94 52 26 15 54 32 62 39 8 7 51
37 95 66 100 68 248 193 298 253 48 58 66 101 73 174 9 95 -10 131 -136 253
-61 59 -110 109 -110 112 0 3 21 5 48 5 110 -2 257 22 280 46 21 21 6 36 -26
27 -97 -29 -248 -48 -269 -33 -14 9 -26 87 -22 142 7 94 -5 228 -31 355 -10
50 -21 115 -25 145 -8 76 -29 155 -41 153 -15 -3 -21 -46 -11 -78 5 -16 12
-57 17 -90 4 -33 15 -102 24 -153 9 -50 18 -121 20 -157 3 -35 6 -68 9 -72 4
-7 2 -254 -2 -260 -4 -6 -86 78 -86 89 -1 7 -5 26 -9 42 -7 21 -4 36 8 58 16
26 16 39 6 121 -30 232 -61 421 -71 434 -28 33 -30 -9 -9 -153 12 -82 24 -171
27 -198 2 -27 8 -57 13 -67 6 -10 6 -36 2 -61 -4 -23 -5 -56 -1 -73 10 -44 10
-75 1 -75 -11 0 -53 76 -46 83 3 3 1 47 -6 98 -12 98 -42 184 -70 199 -13 7
-19 29 -24 97 -4 48 -9 99 -12 113 -4 22 3 30 50 58 30 17 57 32 61 32 4 0 32
21 63 48 31 26 63 52 70 57 76 56 226 241 270 333 20 42 30 41 37 -5 4 -21 13
-72 20 -113 19 -97 38 -229 51 -340 10 -84 14 -164 15 -287 0 -98 4 -134 14
-143 31 -26 35 29 21 285 -9 159 -43 407 -78 580 -27 133 -28 135 -6 170 10
17 22 40 27 51 6 14 23 24 45 28 19 4 49 18 66 33 17 14 32 24 33 22 1 -2 15
-42 31 -89 32 -96 52 -134 67 -124 6 3 8 20 5 38 -9 46 -61 167 -77 177 -11 6
-11 12 1 33 16 32 26 33 33 5 10 -37 32 -15 29 29 -2 32 5 51 33 93 19 29 36
58 38 64 8 20 19 -4 33 -72 9 -37 18 -75 21 -83 16 -39 34 -275 27 -360 -15
-185 -70 -290 -201 -377 -52 -34 -69 -63 -37 -63 24 0 120 68 157 110 31 37
77 118 96 172 22 60 32 226 21 345 -12 142 -18 179 -31 218 -6 17 -13 44 -16
60 -3 17 -12 48 -20 70 -8 22 -20 60 -28 85 -29 99 -134 345 -148 348 -25 5
-29 -16 -12 -55 26 -58 32 -73 60 -143 15 -36 32 -78 40 -95 27 -61 35 -106
19 -112 -8 -3 -14 -10 -14 -16 0 -15 -57 -103 -116 -177 -52 -67 -127 -120
-139 -100 -7 12 -3 60 21 254 16 125 14 149 -10 140 -13 -5 -18 -29 -32 -164
-23 -207 -42 -320 -55 -320 -5 0 -27 -38 -49 -85 -21 -47 -48 -98 -59 -114
-12 -16 -21 -34 -21 -41 0 -37 -207 -246 -277 -281 -24 -11 -43 -24 -43 -29 0
-7 -66 -53 -125 -87 -37 -22 -110 -54 -196 -89 -59 -24 -93 -44 -108 -64 -18
-25 -26 -28 -51 -24 -19 4 -49 -1 -82 -15 -102 -41 -210 -62 -344 -68 -102 -4
-133 -3 -139 7 -5 7 -9 68 -9 136 -2 117 -3 123 -31 164 l-29 42 -68 -4 c-76
-4 -96 -17 -107 -69 -6 -30 -11 -34 -41 -37 -19 -1 -91 -10 -160 -18 -69 -9
-134 -16 -145 -16 -10 1 -25 -4 -32 -9 -6 -6 -17 -8 -22 -5 -15 9 -194 -32
-202 -46 -14 -22 6 -29 53 -19 82 19 223 42 278 47 30 2 87 10 125 16 39 6 83
11 99 10 16 -1 37 3 47 9 30 15 87 1 95 -25 15 -44 4 -77 -40 -121 -76 -77
-160 -111 -343 -142 -24 -4 -60 -35 -154 -132 l-122 -127 -86 86 c-47 48 -99
96 -115 107 l-29 20 59 74 c32 41 76 90 96 110 21 20 38 39 38 42 0 15 -45 5
-66 -14 -19 -18 -27 -19 -56 -10 -18 6 -63 20 -100 32 -40 12 -68 26 -68 34 0
8 -22 18 -57 25 -70 14 -162 50 -265 103 -66 34 -98 61 -210 177 -73 75 -155
170 -183 211 -27 41 -53 76 -57 77 -4 2 -8 8 -8 14 0 5 -13 28 -28 51 -131
195 -283 654 -308 931 -6 63 -10 76 -23 74 -24 -5 -23 -85 2 -193 3 -11 8 -40
12 -65 4 -25 9 -56 12 -70 2 -14 13 -56 24 -95 11 -38 27 -95 36 -125 8 -30
21 -68 28 -85 7 -16 16 -41 20 -55 7 -23 37 -90 96 -215 13 -27 26 -54 28 -59
2 -5 -22 -6 -60 -1 -35 4 -73 8 -85 7 -11 0 -24 10 -30 21 -5 11 -24 28 -42
38 -19 9 -42 25 -53 35 -50 45 -164 250 -198 354 -30 94 -50 244 -38 294 35
157 54 189 132 211 39 12 52 20 48 30 -7 20 -70 17 -106 -5z m2368 -1537 c22
-25 25 -37 27 -118 1 -49 4 -119 5 -155 4 -61 15 -495 17 -660 1 -70 0 -75
-19 -71 -11 3 -57 5 -102 5 -49 0 -84 4 -86 10 -2 6 0 58 4 116 4 58 10 207
13 331 l6 226 34 37 c19 20 38 36 41 36 33 0 53 102 31 155 -11 26 -24 36 -54
46 -31 9 -38 15 -35 30 5 18 42 37 75 38 9 1 29 -11 43 -26z m989 -185 c6 -71
5 -78 -11 -78 -33 0 -40 14 -41 82 0 54 3 70 16 77 25 14 29 5 36 -81z m-2268
54 c5 -5 36 -17 69 -26 33 -10 85 -26 115 -36 30 -11 88 -28 128 -40 39 -12
72 -25 72 -29 0 -5 -13 -24 -29 -44 -15 -20 -34 -50 -41 -66 -10 -26 -15 -29
-32 -20 -12 6 -17 17 -14 26 4 9 -13 36 -45 71 -28 31 -58 66 -66 79 -8 12
-19 20 -24 17 -22 -13 -6 -54 41 -106 28 -31 50 -59 50 -62 0 -3 -11 -6 -25
-6 -33 0 -98 60 -176 161 -32 43 -59 81 -59 84 0 8 25 6 36 -3z m2174 -22 c0
-13 -5 -17 -14 -14 -16 6 -36 -24 -36 -55 0 -18 -6 -21 -48 -21 -27 0 -51 2
-54 5 -11 11 5 55 21 56 9 0 39 11 66 24 62 29 65 29 65 5z m-180 -374 c15
-45 13 -48 -53 -94 -75 -52 -246 -162 -252 -162 -2 0 -54 -29 -114 -65 -77
-46 -123 -67 -155 -71 -34 -4 -46 -2 -46 8 0 7 -2 54 -5 105 -2 51 0 95 5 98
4 3 21 6 37 7 15 1 33 5 38 9 6 3 28 12 50 19 69 21 296 151 315 179 3 5 39
36 80 71 l75 62 8 -68 c4 -38 12 -82 17 -98z m-906 -223 c-3 -54 -7 -140 -8
-192 -2 -79 -6 -96 -22 -108 -10 -7 -19 -26 -20 -41 -1 -26 -4 -28 -70 -38
-38 -6 -77 -15 -86 -19 -16 -6 -18 -1 -18 33 0 41 -13 83 -35 112 -6 8 -17 34
-25 57 l-13 41 44 52 c43 51 176 160 196 160 5 0 18 9 28 20 10 11 22 20 27
20 5 0 6 -44 2 -97z m-469 46 c11 -17 32 -37 48 -45 15 -8 27 -18 27 -23 0 -5
20 -22 45 -38 50 -31 50 -32 32 -57 -13 -17 -16 -16 -53 24 -21 24 -48 52 -59
64 -28 28 -75 91 -75 99 0 16 17 5 35 -24z m705 -354 c14 -4 32 -14 41 -22 20
-17 42 -122 34 -156 -6 -23 -9 -24 -38 -16 -18 5 -45 9 -62 8 -16 0 -39 0 -50
1 -19 1 -18 2 3 10 45 19 21 50 -39 50 -43 0 -121 52 -125 83 -3 26 -2 26 71
50 39 12 107 9 165 -8z m-300 -115 c0 -6 14 -8 33 -5 25 4 38 0 52 -15 71 -73
99 -90 152 -91 86 -2 139 -25 201 -89 36 -37 62 -73 70 -99 14 -49 16 -201 2
-201 -5 0 -10 -4 -10 -10 0 -24 -146 -151 -195 -170 -70 -27 -235 -20 -235 11
0 5 -11 9 -24 9 -14 0 -37 11 -52 25 -15 14 -31 25 -36 25 -19 0 -101 87 -132
139 -65 113 -71 234 -17 354 32 70 61 105 94 111 12 3 31 7 42 9 37 8 55 7 55
-3z m-136 -588 l56 -53 -63 -63 c-34 -34 -73 -70 -87 -79 -33 -23 -88 -21
-127 2 -56 35 -53 48 48 182 l93 123 12 -30 c7 -16 37 -53 68 -82z m436 -187
c17 -21 4 -62 -22 -71 -25 -8 -50 19 -41 44 15 43 41 54 63 27z"/>
<path d="M5003 4634 c-8 -21 23 -52 37 -38 6 6 8 18 5 27 -9 22 -35 29 -42 11z"/>
<path d="M6034 3719 c-8 -13 24 -41 41 -36 5 2 10 12 10 23 0 22 -39 32 -51
13z"/>
<path d="M5613 3558 c-42 -47 -58 -108 -28 -108 8 0 15 5 15 11 0 6 14 30 31
55 39 58 26 90 -18 42z"/>
<path d="M4426 6304 c-21 -18 -26 -28 -18 -36 8 -8 21 -4 47 16 19 15 35 31
35 37 0 17 -35 8 -64 -17z"/>
<path d="M8872 6147 c-9 -10 -2 -21 31 -45 84 -64 120 -98 162 -152 91 -119
153 -283 164 -433 5 -72 9 -92 21 -92 33 0 21 171 -20 297 -53 162 -147 294
-286 399 -57 44 -57 44 -72 26z"/>
<path d="M3367 5953 c-14 -14 -1 -211 24 -358 6 -33 12 -69 14 -80 33 -195 71
-315 102 -315 17 0 17 1 -17 125 -48 175 -89 443 -90 583 0 36 -4 52 -13 52
-8 0 -17 -3 -20 -7z"/>
<path d="M8810 5942 c0 -22 116 -152 136 -152 32 0 21 26 -42 93 -72 76 -94
90 -94 59z"/>
<path d="M8440 5698 c0 -43 41 -158 57 -158 22 0 24 19 7 72 -26 81 -43 118
-54 118 -5 0 -10 -15 -10 -32z"/>
<path d="M9020 5702 c0 -5 22 -47 50 -93 27 -46 50 -89 50 -95 0 -7 7 -25 15
-40 8 -16 15 -36 15 -44 0 -8 5 -32 11 -53 9 -32 13 -36 29 -27 17 9 17 14 5
58 -37 142 -120 302 -157 302 -10 0 -18 -4 -18 -8z"/>
<path d="M4757 5584 c-31 -31 50 -150 128 -188 66 -33 125 -38 125 -12 0 15
-21 26 -51 26 -54 0 -151 85 -168 147 -7 27 -22 39 -34 27z"/>
<path d="M7690 5484 c0 -4 13 -52 29 -108 38 -133 53 -213 45 -253 -6 -30 -4
-33 20 -33 28 0 30 6 26 70 -2 44 -52 242 -73 293 -9 20 -23 37 -31 37 -9 0
-16 -3 -16 -6z"/>
<path d="M6850 5436 c0 -20 34 -38 55 -30 28 11 13 39 -23 42 -23 2 -32 -1
-32 -12z"/>
<path d="M4020 5345 c-10 -12 -5 -32 24 -107 47 -118 79 -181 94 -186 7 -2 12
5 12 15 0 17 -70 199 -90 235 -6 10 -10 24 -10 32 0 22 -16 28 -30 11z"/>
<path d="M8580 5230 c0 -5 6 -27 14 -47 8 -21 22 -65 31 -98 9 -33 23 -78 29
-100 19 -61 20 -259 1 -329 -23 -85 -62 -181 -107 -259 -44 -75 -133 -187
-150 -187 -6 0 -47 -24 -92 -53 -44 -30 -90 -54 -101 -55 -67 -6 -105 -15
-105 -27 0 -36 145 -13 212 33 26 18 50 37 53 42 3 6 14 10 24 10 41 0 149
129 223 268 48 90 90 229 96 320 5 82 17 106 27 55 3 -16 10 -44 15 -63 19
-76 32 -200 32 -300 0 -91 -3 -114 -27 -175 -24 -61 -34 -75 -78 -105 -68 -47
-177 -156 -204 -205 -73 -130 -105 -233 -88 -281 18 -49 35 -41 35 15 0 94 75
253 157 333 116 112 247 198 303 198 10 0 21 4 24 9 6 9 31 15 121 30 58 10
117 -5 173 -42 21 -13 63 -40 94 -61 78 -50 122 -104 138 -170 15 -62 9 -160
-11 -197 -29 -52 -74 -124 -80 -129 -4 -3 -24 -27 -44 -55 -21 -27 -41 -52
-45 -55 -3 -3 -28 -41 -56 -84 -48 -78 -112 -151 -157 -180 -65 -43 -170 -59
-278 -43 -72 10 -90 20 -168 91 -67 62 -91 73 -91 42 0 -16 87 -97 143 -134
31 -21 61 -29 144 -38 59 -7 116 -8 131 -3 15 4 53 16 84 25 l57 18 21 -25
c76 -88 130 -211 150 -342 20 -125 -2 -357 -43 -445 -8 -18 -7 -26 6 -39 15
-15 17 -14 28 13 11 27 13 19 30 -94 19 -131 42 -241 64 -307 7 -22 19 -65 25
-95 7 -30 15 -59 19 -65 3 -5 6 -14 6 -20 1 -34 68 -191 121 -284 27 -47 93
-131 103 -131 23 0 16 32 -16 76 -79 112 -132 221 -171 359 -82 290 -106 400
-117 551 -4 51 -13 93 -20 99 -10 8 -10 26 1 90 24 148 18 259 -24 426 -13 50
-80 172 -120 220 l-34 39 61 67 c34 37 61 71 61 75 0 6 51 82 104 154 12 18
33 42 47 55 27 27 59 79 94 156 21 45 24 65 22 140 -5 149 -40 196 -236 318
-131 82 -176 86 -342 35 -51 -16 -95 -27 -97 -25 -5 5 79 116 137 181 129 142
222 299 255 431 42 169 47 333 10 333 -10 0 -14 -14 -15 -47 -2 -108 -8 -170
-18 -196 -6 -16 -11 -41 -11 -57 0 -16 -4 -32 -10 -35 -5 -3 -10 -16 -10 -28
0 -29 -98 -213 -141 -267 -19 -23 -57 -68 -84 -99 -28 -31 -60 -69 -73 -86
l-23 -30 5 50 c3 28 1 88 -4 135 -5 47 -12 108 -15 135 -3 28 -9 59 -14 70 -5
11 -14 47 -20 80 -30 162 -137 425 -172 425 -11 0 -19 -4 -19 -10z"/>
<path d="M4563 5204 c-8 -22 15 -61 67 -114 25 -25 60 -65 78 -88 53 -67 276
-247 294 -236 19 12 5 35 -38 65 -58 40 -192 156 -219 189 -11 14 -40 47 -64
74 -24 27 -49 64 -57 82 -11 27 -31 44 -50 44 -3 0 -7 -7 -11 -16z"/>
<path d="M7470 5176 c0 -7 7 -31 16 -52 39 -93 87 -328 99 -484 2 -25 4 -92 4
-148 0 -95 1 -103 18 -100 61 11 -11 606 -94 771 -14 28 -43 37 -43 13z"/>
<path d="M3542 5113 c-7 -12 3 -35 40 -92 27 -42 60 -87 74 -102 13 -14 24
-28 24 -33 0 -27 236 -256 321 -312 41 -26 76 -51 79 -55 3 -4 28 -15 55 -24
28 -10 87 -35 132 -56 45 -21 88 -39 95 -39 7 -1 56 -13 108 -29 98 -28 133
-29 128 -3 -2 10 -38 24 -113 42 -60 15 -146 42 -190 61 -44 18 -82 34 -85 34
-18 3 -107 49 -170 90 -79 51 -291 255 -333 322 -14 21 -34 48 -46 60 -11 12
-37 51 -57 87 -38 69 -47 77 -62 49z"/>
<path d="M7370 5033 c0 -10 12 -58 26 -108 33 -119 45 -171 74 -340 17 -97 21
-227 8 -242 -18 -23 7 -42 28 -21 47 46 6 347 -94 693 -9 34 -42 48 -42 18z"/>
<path d="M7314 4977 c-3 -8 4 -50 16 -93 11 -43 23 -99 25 -124 3 -25 9 -76
15 -115 6 -38 13 -135 15 -215 6 -162 12 -210 25 -210 17 0 19 17 19 156 1
211 -61 600 -96 612 -7 2 -15 -3 -19 -11z"/>
<path d="M7866 4751 c-7 -10 -8 -66 -6 -169 4 -170 -34 -272 -147 -393 -29
-30 -32 -38 -20 -48 12 -9 25 -1 70 49 76 85 113 158 128 258 21 130 50 87 51
-73 0 -97 -23 -202 -48 -212 -19 -7 -18 -43 1 -43 17 0 65 67 65 90 0 9 5 21
11 27 7 7 11 54 12 120 0 111 -11 160 -74 341 -21 59 -31 72 -43 53z"/>
<path d="M7650 4291 c-13 -33 -10 -73 6 -78 13 -4 34 48 34 83 0 33 -25 30
-40 -5z"/>
<path d="M4554 4212 c-11 -10 -24 -30 -27 -44 -4 -15 -25 -46 -47 -70 -22 -24
-70 -79 -105 -123 -63 -77 -117 -142 -142 -169 -21 -23 -75 -136 -79 -164 -14
-98 -13 -98 -57 -109 -74 -19 -141 -30 -192 -32 -102 -4 -214 -38 -299 -93
-99 -62 -92 -56 -79 -69 14 -14 37 -6 103 36 54 35 186 83 197 71 3 -3 14 -1
24 4 10 6 46 12 81 14 35 3 70 7 78 9 8 3 36 8 63 12 46 6 47 6 48 -22 1 -15
0 -39 -1 -53 -1 -14 4 -107 10 -207 16 -227 19 -212 -119 -493 -57 -114 -178
-338 -211 -390 -6 -8 -33 -60 -61 -115 -79 -154 -188 -356 -213 -395 -13 -19
-67 -109 -121 -199 -53 -91 -103 -171 -110 -178 -8 -7 -17 -23 -20 -34 -4 -12
-17 -35 -29 -53 -26 -38 -156 -299 -202 -405 -39 -90 -65 -104 -84 -46 -7 20
-17 34 -23 32 -19 -6 -20 -37 -2 -57 20 -22 22 -21 -100 -62 -33 -11 -64 -24
-69 -29 -6 -5 -17 -9 -26 -9 -8 0 -48 -16 -88 -35 -68 -32 -72 -33 -72 -14 0
12 -25 49 -55 82 -30 34 -67 85 -82 114 -26 49 -27 55 -16 107 16 77 39 120
90 171 48 48 203 175 214 175 4 0 10 -21 14 -48 18 -125 66 -262 91 -262 18 0
19 -3 -21 140 -21 74 -28 126 -32 235 -7 195 12 250 137 386 204 221 300 349
300 397 0 38 -28 24 -55 -25 -34 -63 -84 -134 -126 -181 -280 -307 -285 -316
-295 -472 -3 -47 -10 -86 -15 -88 -5 -2 -9 -11 -10 -20 0 -9 -22 -33 -48 -52
-120 -87 -229 -192 -255 -245 -8 -16 -22 -55 -30 -85 -27 -91 -2 -148 123
-290 35 -39 36 -43 20 -72 -9 -16 -8 -56 1 -157 13 -147 16 -187 18 -269 2
-61 5 -65 145 -176 48 -37 87 -72 87 -77 0 -5 17 -9 38 -9 l37 0 2 143 c1 78
5 164 8 191 10 75 78 265 165 461 10 22 28 67 40 100 22 58 165 351 208 426
11 20 39 67 62 105 75 121 190 316 190 321 0 2 11 19 24 36 25 34 63 101 133
237 47 91 53 102 73 140 8 14 23 43 33 65 11 22 30 57 43 77 13 21 24 44 24
52 0 8 4 16 9 18 11 4 42 62 177 324 118 231 138 294 129 413 -4 42 -8 104
-10 138 -2 35 -6 67 -10 72 -3 5 -1 40 5 78 17 119 22 157 25 204 2 25 12 63
24 85 19 38 95 143 124 174 8 8 44 53 81 100 37 47 78 99 91 115 84 102 116
193 49 137z m-1564 -3400 c0 -5 -18 -51 -41 -103 -45 -104 -65 -157 -80 -209
-6 -19 -14 -44 -18 -55 -5 -11 -13 -32 -19 -46 -6 -15 -21 -29 -35 -33 -13 -3
-64 -24 -112 -46 -48 -23 -90 -39 -92 -36 -3 3 -9 67 -14 143 -5 76 -11 154
-14 174 -6 32 -3 39 23 58 17 11 36 21 44 21 8 0 18 4 23 9 14 13 168 75 240
96 33 10 64 22 70 27 12 10 25 10 25 0z"/>
<path d="M4920 4108 c0 -6 76 -86 168 -177 92 -91 201 -206 242 -254 67 -81
74 -93 78 -140 6 -71 -13 -135 -42 -146 -12 -5 -34 -27 -48 -49 -30 -45 -88
-102 -103 -102 -5 0 -21 19 -34 41 -21 39 -70 108 -109 154 -9 11 -36 45 -61
75 -71 89 -192 220 -202 220 -31 0 24 -88 97 -155 6 -5 39 -46 75 -90 35 -44
66 -82 69 -85 43 -40 140 -203 140 -235 0 -26 -57 -128 -90 -159 -29 -29 -34
-46 -14 -53 33 -11 134 140 147 218 2 13 27 47 55 76 28 29 63 70 77 93 14 22
31 40 38 40 22 0 41 63 41 141 1 77 -8 98 -69 166 -5 6 -32 37 -60 69 -59 68
-46 54 -223 227 -130 126 -172 157 -172 125z"/>
<path d="M7584 3808 c-9 -14 29 -46 158 -136 238 -164 355 -227 522 -281 108
-35 139 -39 134 -15 -2 11 -34 26 -98 46 -120 36 -283 111 -339 155 -15 11 13
10 54 -3 28 -9 86 -25 130 -36 44 -10 106 -26 138 -34 118 -29 182 -42 186
-38 12 12 -42 48 -81 54 -24 4 -124 29 -223 55 -99 26 -214 55 -255 65 -73 17
-150 61 -273 154 -38 29 -43 31 -53 14z"/>
<path d="M11988 3684 c-4 -4 -52 -8 -107 -10 -55 -1 -113 -5 -128 -8 -15 -3
-43 -8 -61 -11 -42 -7 -196 -67 -282 -110 -98 -49 -215 -137 -309 -232 -111
-112 -214 -195 -276 -223 -28 -12 -72 -33 -100 -45 -27 -13 -75 -34 -106 -48
-57 -25 -82 -46 -211 -185 -77 -82 -98 -122 -98 -187 0 -16 4 -36 9 -44 15
-24 31 -1 31 45 0 59 9 74 93 164 39 41 86 91 104 112 21 23 59 46 101 63 37
15 76 32 87 39 11 7 47 23 80 36 76 30 122 65 270 205 66 62 134 124 150 136
17 13 32 26 35 30 7 9 157 100 200 121 62 29 199 78 263 93 42 10 96 13 160
10 78 -3 99 -1 103 10 7 18 1 49 -8 39z"/>
<path d="M8405 3590 c-8 -13 13 -50 29 -50 19 0 29 30 15 46 -13 16 -35 18
-44 4z"/>
<path d="M8657 3434 c-15 -15 -5 -21 51 -33 31 -7 92 -27 135 -43 72 -27 107
-31 107 -11 0 14 -122 63 -180 72 -30 5 -66 12 -80 16 -14 3 -29 3 -33 -1z"/>
<path d="M4520 3352 c0 -18 23 -58 44 -77 6 -5 31 -37 56 -70 54 -72 71 -93
88 -110 6 -8 12 -17 12 -21 0 -4 10 -18 21 -30 l21 -23 -22 -46 c-27 -56 -35
-111 -21 -147 19 -51 39 -34 39 32 0 72 17 120 43 120 34 0 29 17 -24 84 -28
37 -70 91 -92 120 -22 30 -62 83 -90 120 -50 66 -75 82 -75 48z"/>
<path d="M3460 3323 c-31 -13 -127 -89 -178 -142 -52 -54 -142 -217 -142 -255
0 -10 -5 -26 -11 -37 -24 -46 -39 -133 -54 -329 -7 -82 -23 -234 -30 -280 -8
-45 -24 -180 -24 -202 -1 -11 6 -18 17 -18 14 0 20 14 30 71 7 39 10 75 7 80
-3 5 -2 17 3 26 11 21 19 96 40 368 16 198 53 325 148 496 23 40 100 111 172
156 39 26 72 52 72 60 0 13 -23 16 -50 6z"/>
<path d="M3576 3222 c-11 -10 -6 -32 7 -32 8 0 19 -17 26 -37 29 -89 74 -268
76 -303 1 -8 4 -22 7 -30 14 -39 63 -340 70 -440 2 -23 8 -35 18 -35 12 0 15
15 13 79 -2 81 -38 325 -53 361 -5 11 -8 27 -9 35 0 43 -75 329 -97 371 -13
25 -47 43 -58 31z"/>
<path d="M8254 2867 c0 -34 -6 -98 -12 -142 -7 -44 -14 -100 -17 -125 -2 -25
-16 -139 -30 -255 -13 -115 -27 -259 -31 -320 -3 -60 -7 -121 -8 -134 0 -13 4
-26 9 -27 9 -4 171 315 255 501 55 121 120 303 120 335 0 56 -23 27 -59 -71
-61 -170 -66 -184 -84 -209 -9 -13 -17 -30 -17 -36 0 -16 -168 -364 -175 -364
-4 0 -4 19 -1 43 3 23 13 110 21 192 23 223 44 398 60 506 8 53 15 113 15 133
0 31 -3 36 -22 36 -21 0 -23 -5 -24 -63z"/>
<path d="M4969 2883 c-29 -33 -78 -98 -102 -135 -20 -32 -52 -44 -73 -27 -13
10 -17 10 -25 -2 -17 -27 -5 -44 33 -47 30 -3 43 3 72 30 46 43 156 190 150
200 -10 15 -31 8 -55 -19z"/>
<path d="M11940 2764 c-25 -18 -79 -60 -120 -92 -70 -55 -187 -134 -236 -160
-35 -19 -115 -44 -121 -38 -8 8 -83 -24 -141 -61 -29 -18 -57 -33 -62 -33 -6
0 -27 -9 -47 -20 -21 -11 -45 -20 -53 -20 -9 0 -20 -4 -25 -8 -22 -20 -135
-51 -202 -57 -67 -6 -161 5 -208 24 -11 5 -49 19 -85 31 -36 12 -72 28 -80 35
-8 7 -40 27 -71 44 -52 29 -79 62 -79 96 0 22 -27 18 -33 -5 -9 -33 31 -98 72
-117 20 -9 50 -27 66 -39 37 -28 199 -88 282 -104 93 -19 241 1 348 46 93 39
191 87 207 100 9 9 63 29 120 45 97 28 176 68 288 143 25 17 47 33 50 36 24
24 123 101 153 119 26 16 37 30 37 47 0 31 -5 30 -60 -12z"/>
<path d="M6200 2491 c0 -10 7 -36 16 -57 17 -40 20 -58 37 -232 9 -95 8 -115
-4 -126 -15 -15 -246 -60 -293 -58 -16 1 -35 -3 -42 -9 -7 -6 -25 -9 -40 -7
-21 2 -28 9 -30 31 -1 15 -7 51 -12 80 -6 28 -10 63 -10 77 -1 39 -11 70 -23
70 -20 0 -22 -35 -6 -138 11 -75 13 -110 5 -119 -7 -9 -53 -12 -177 -11 -119
1 -196 -4 -271 -16 -120 -21 -210 -51 -210 -71 0 -23 16 -26 54 -10 37 16 148
44 201 52 17 2 114 6 217 8 154 2 189 1 199 -11 13 -16 14 -153 4 -634 -11
-541 -2 -783 33 -905 5 -17 13 -82 17 -145 10 -168 26 -254 48 -258 13 -3 17
4 17 30 0 18 -5 51 -10 73 -5 22 -11 90 -15 150 -3 61 -10 126 -15 146 -6 20
-17 86 -26 145 -18 119 -19 266 -7 799 7 327 7 454 3 560 l-3 60 29 1 c16 0
40 3 54 7 14 4 48 9 75 12 80 10 96 13 167 28 61 13 69 13 81 -2 12 -13 15
-105 20 -501 3 -267 8 -669 11 -895 3 -226 9 -428 13 -450 6 -27 14 -41 27
-43 18 -4 19 1 13 64 -14 154 -25 816 -27 1593 0 152 -4 229 -11 238 -7 7 -10
16 -7 19 3 2 52 21 109 40 166 57 282 127 394 239 47 46 74 86 85 126 11 37
-2 37 -32 0 -12 -15 -39 -48 -58 -71 -19 -24 -39 -49 -45 -55 -18 -22 -119
-93 -180 -127 -72 -41 -128 -64 -212 -88 l-63 -19 -1 32 c-2 110 -33 305 -58
370 -12 31 -41 37 -41 8z"/>
<path d="M5978 2433 c-61 -71 -35 -173 45 -173 52 0 70 19 74 81 4 52 3 55
-29 75 -50 33 -72 37 -90 17z m60 -49 c43 -30 17 -108 -29 -83 -22 11 -32 54
-19 79 13 24 19 25 48 4z"/>
<path d="M4596 2045 c-18 -18 -18 -46 -1 -52 16 -5 37 36 27 53 -8 14 -11 14
-26 -1z"/>
<path d="M4548 1893 c-13 -16 -44 -146 -55 -233 -2 -19 -8 -44 -13 -55 -5 -11
-18 -69 -29 -130 -20 -105 -74 -385 -91 -470 -4 -22 -15 -76 -24 -120 -9 -44
-22 -114 -30 -155 -28 -139 -100 -434 -136 -555 -12 -38 -25 -83 -29 -100 -4
-16 -11 -40 -15 -53 -7 -21 -5 -23 15 -20 18 2 25 14 37 58 7 30 25 91 38 135
33 111 48 174 94 375 22 96 45 193 50 215 6 22 12 58 15 80 3 22 12 72 19 110
8 39 37 187 65 330 50 255 57 288 101 489 22 100 18 134 -12 99z"/>
<path d="M6031 1852 c-28 -32 -40 -104 -21 -127 21 -25 76 -18 112 14 26 23
33 36 33 69 0 52 -18 72 -64 72 -27 0 -42 -7 -60 -28z m79 -40 c0 -33 -32 -67
-55 -59 -35 14 -4 87 37 87 13 0 18 -7 18 -28z"/>
<path d="M4916 1817 c-48 -27 -57 -47 -22 -47 32 0 109 47 101 60 -10 16 -37
11 -79 -13z"/>
<path d="M8157 1823 c-3 -3 -2 -15 2 -27 8 -21 -3 -406 -14 -481 -3 -22 -7
-83 -10 -135 -2 -52 -7 -149 -10 -215 -8 -138 -7 -526 0 -534 3 -2 11 4 19 14
10 15 14 58 13 175 0 85 3 243 8 350 8 186 10 229 21 365 2 33 6 119 9 190 2
72 7 162 10 201 5 67 4 72 -19 87 -13 9 -26 13 -29 10z"/>
<path d="M9604 1395 c-5 -11 31 -93 105 -239 61 -121 111 -225 111 -230 0 -5
12 -33 26 -61 64 -133 71 -266 18 -382 -8 -17 -14 -37 -14 -44 0 -18 -87 -176
-123 -223 -17 -23 -70 -80 -118 -128 -84 -85 -86 -88 -57 -88 25 0 45 15 109
81 100 103 128 142 183 254 66 135 88 209 94 306 6 120 -9 162 -195 536 -109
220 -128 249 -139 218z"/>
<path d="M6055 1240 c-3 -5 -4 -14 -1 -19 3 -4 -6 -13 -20 -20 -34 -15 -58
-72 -43 -105 6 -13 21 -29 34 -36 18 -10 29 -8 64 9 48 25 63 54 54 106 -8 50
-69 96 -88 65z m45 -78 c-1 -35 -22 -62 -48 -62 -34 0 -34 28 1 64 36 37 47
37 47 -2z"/>
<path d="M8527 889 c-9 -5 -27 -29 -39 -52 -20 -37 -22 -57 -22 -157 1 -125 6
-188 23 -265 40 -188 135 -407 179 -413 12 -2 22 0 22 4 0 4 -16 36 -36 71
-43 77 -79 172 -106 278 -11 44 -25 97 -30 117 -6 20 -11 99 -12 176 -1 120 2
143 19 175 16 31 25 37 51 37 44 0 81 -33 95 -83 6 -23 17 -53 24 -67 7 -14
16 -42 19 -64 4 -21 9 -42 12 -47 2 -5 7 -21 9 -36 3 -16 16 -82 29 -148 27
-129 46 -284 46 -365 0 -46 2 -50 24 -50 22 0 23 3 19 52 -11 138 -34 320 -49
383 -9 39 -20 86 -24 105 -52 222 -91 320 -140 345 -33 17 -87 19 -113 4z"/>
<path d="M9509 868 c-1 -2 -3 -25 -4 -53 -5 -73 -51 -274 -92 -394 -49 -148
-116 -271 -191 -352 l-64 -69 30 0 c24 0 41 12 80 55 28 30 58 70 68 88 51 98
92 185 98 207 4 14 11 34 15 45 58 145 112 430 88 463 -8 11 -25 16 -28 10z"/>
<path d="M11487 646 c-91 -33 -147 -110 -147 -203 0 -193 227 -296 363 -165
45 43 62 89 62 167 0 59 -5 77 -27 111 -57 89 -155 124 -251 90z m133 -115
c57 -41 64 -120 14 -172 -53 -55 -133 -44 -174 24 -25 41 -25 73 0 115 36 59
103 72 160 33z"/>
<path d="M11520 439 l0 -70 48 32 c26 18 49 34 51 36 5 4 -23 25 -71 55 l-28
18 0 -71z"/>
<path d="M6087 493 c-16 -15 -5 -33 28 -49 43 -20 58 -45 49 -79 -9 -37 -39
-50 -70 -30 -29 19 -30 25 -3 59 19 25 19 46 -2 46 -6 0 -21 -12 -34 -26 -33
-36 -33 -78 1 -109 55 -51 136 -21 148 54 8 54 -6 85 -48 105 -19 9 -38 21
-41 26 -7 12 -19 13 -28 3z"/>
<path d="M9091 363 c-40 -312 -39 -307 -66 -328 -14 -12 -25 -24 -25 -28 0
-12 67 -8 78 6 11 12 28 86 24 100 -2 5 2 36 9 70 6 34 12 80 14 102 1 22 6
61 10 88 7 45 -3 77 -25 77 -4 0 -13 -39 -19 -87z"/>
<path d="M8144 268 c-4 -13 -8 -78 -8 -145 -1 -108 1 -123 15 -123 9 0 20 7
23 16 15 38 2 274 -15 274 -4 0 -11 -10 -15 -22z"/>
<path d="M7245 240 c-98 -51 -202 -127 -256 -188 -38 -44 -40 -47 -20 -50 15
-2 35 10 64 39 23 23 65 59 93 81 56 42 197 118 219 118 19 0 56 -165 44 -197
-13 -35 -11 -43 10 -43 34 0 39 63 16 175 -15 71 -39 105 -74 105 -9 0 -52
-18 -96 -40z"/>
<path d="M4595 191 c-2 -5 17 -50 43 -100 39 -75 51 -91 70 -91 23 0 22 2 -18
76 -23 42 -47 85 -53 95 -14 22 -34 32 -42 20z"/>
<path d="M6335 50 c-9 -15 5 -52 18 -47 19 6 21 57 3 57 -8 0 -18 -5 -21 -10z"/>
<path d="M4278 3 c7 -3 16 -2 19 1 4 3 -2 6 -13 5 -11 0 -14 -3 -6 -6z"/>
<path d="M6038 3 c12 -2 30 -2 40 0 9 3 -1 5 -23 4 -22 0 -30 -2 -17 -4z"/>
<path d="M6133 3 c15 -2 39 -2 55 0 15 2 2 4 -28 4 -30 0 -43 -2 -27 -4z"/>
<path d="M6268 3 c7 -3 16 -2 19 1 4 3 -2 6 -13 5 -11 0 -14 -3 -6 -6z"/>
</g>
</svg>
